<svg width="95" height="35" viewBox="0 0 95 35" fill="none" xmlns="http://www.w3.org/2000/svg">
<path d="M27.1887 32.1194C25.5781 33.6691 23.6053 34.4428 21.2727 34.4428C18.9401 34.4428 16.9673 33.6691 15.3567 32.1194C13.746 30.5698 12.9395 28.6873 12.9395 26.4719C12.9395 24.2565 13.746 22.3717 15.3567 20.8243C16.9673 19.2747 18.9401 18.501 21.2727 18.501C23.6053 18.501 25.5781 19.2747 27.1887 20.8243C28.7994 22.374 29.606 24.2565 29.606 26.4719C29.606 28.6873 28.7994 30.572 27.1887 32.1194ZM16.483 31.0623C17.7715 32.3173 19.3681 32.9448 21.2727 32.9448C23.1773 32.9448 24.7715 32.3173 26.0601 31.0623C27.3486 29.8073 27.9929 28.2757 27.9929 26.4696C27.9929 24.6636 27.3486 23.1342 26.0601 21.8792C24.7715 20.6241 23.175 19.9966 21.2727 19.9966C19.3704 19.9966 17.7739 20.6241 16.483 21.8792C15.1944 23.1342 14.5501 24.6658 14.5501 26.4696C14.5501 28.2734 15.1944 29.8051 16.483 31.0623Z" fill="#2C2C2C"/>
<path d="M40.6621 20.2174H33.18V25.8987H40.3164V27.3516H33.18V34.1777H31.5693V18.7622H40.6644V20.2151L40.6621 20.2174Z" fill="#2C2C2C"/>
<path d="M54.3566 18.7642V20.2171H49.407V34.1797H47.7963V20.2171H42.8467V18.7642H54.359H54.3566Z" fill="#2C2C2C"/>
<path d="M58.1521 32.7267H65.5189V34.1797H56.5391V18.7642H58.1498V32.7267H58.1521Z" fill="#2C2C2C"/>
<path d="M79.822 34.1797L78.3265 30.3921H70.6822L69.1868 34.1797H67.4844L73.6779 18.7642H75.3356L81.5291 34.1797H79.8267H79.822ZM71.2583 28.9392H77.7505L74.5032 20.6804L71.2583 28.9392Z" fill="#2C2C2C"/>
<path d="M92.4207 26.1863C93.2037 26.5101 93.8292 26.9982 94.2971 27.6504C94.7651 28.3049 95.0002 29.0494 95.0002 29.8861C95.0002 31.0759 94.5628 32.088 93.6881 32.9246C92.8134 33.7613 91.7553 34.1797 90.5114 34.1797H83.4902V18.7642H89.9824C91.1792 18.7642 92.1997 19.1713 93.0438 19.9854C93.888 20.7996 94.3089 21.7735 94.3089 22.9025C94.3089 24.342 93.6787 25.4351 92.4207 26.184V26.1863ZM89.98 20.2193H85.0986V25.5925H89.98C90.7325 25.5925 91.372 25.3316 91.9034 24.8098C92.4325 24.288 92.6982 23.6538 92.6982 22.9048C92.6982 22.1558 92.4325 21.5396 91.9034 21.011C91.3744 20.4825 90.7325 20.2193 89.98 20.2193ZM90.5091 32.7267C91.3062 32.7267 91.9857 32.4523 92.5477 31.9013C93.1073 31.3503 93.3872 30.68 93.3872 29.8861C93.3872 29.0921 93.1073 28.4399 92.5477 27.8821C91.9881 27.3243 91.3085 27.0454 90.5091 27.0454H85.0986V32.7267H90.5091Z" fill="#2C2C2C"/>
<path d="M7.10349 25.7454H4.40882C2.81224 25.7454 1.51899 24.5084 1.51899 22.9813C1.51899 21.4541 2.81224 20.2171 4.40882 20.2171H10.7505V18.7642H4.40882C1.9728 18.7642 0 20.6512 0 22.9813C0 25.3114 1.9728 27.1984 4.40882 27.1984H7.10349C8.70006 27.1984 9.99332 28.4354 9.99332 29.9625C9.99332 31.4897 8.70006 32.7267 7.10349 32.7267H0V34.1797H7.10349C9.5395 34.1797 11.5123 32.2926 11.5123 29.9625C11.5123 27.6325 9.5395 25.7454 7.10349 25.7454Z" fill="#2C2C2C"/>
<path d="M8.8431 15.9155L5.59586 10.5648H3.17865V15.9155H0.00195312V0.5H6.44941C7.93782 0.5 9.20521 0.999305 10.2492 1.99792C11.2932 2.99653 11.8152 4.19981 11.8152 5.61001C11.8152 6.56364 11.5307 7.44979 10.964 8.26397C10.395 9.07816 9.64256 9.69217 8.70672 10.1038L12.2761 15.9177H8.84545L8.8431 15.9155ZM3.17865 3.34064V7.89962H6.44705C7.04665 7.89962 7.55925 7.67695 7.98955 7.22713C8.41985 6.77955 8.63383 6.23976 8.63383 5.60776C8.63383 4.97576 8.41985 4.44046 7.98955 3.99964C7.55925 3.55881 7.04665 3.33839 6.44705 3.33839H3.17865V3.34064Z" fill="#2C2C2C"/>
<path d="M60.3666 0.5L54.8409 9.90359V15.9155H51.6877V9.90359L46.1855 0.5H49.7761L53.2749 6.93024L56.7738 0.5H60.3643H60.3666Z" fill="#2C2C2C"/>
<path d="M65.2861 13.0074H71.4326V15.9132H62.1094V0.5H65.2861V13.0074Z" fill="#2C2C2C"/>
<path d="M76.5726 13.0074H83.3634V15.9132H73.3936V0.5H83.2481V3.40587H76.5726V6.68734H82.6744V9.55047H76.5726V13.0074Z" fill="#2C2C2C"/>
<path d="M44.4458 0.5V3.40587H40.0935V15.9132H36.9168V3.40587H32.5879V0.5H44.4458Z" fill="#2C2C2C"/>
<path d="M27.1727 6.75452H24.8942C23.9278 6.75452 23.1448 6.00556 23.1448 5.08117C23.1448 4.15678 23.9278 3.40782 24.8942 3.40782H30.6269V0.501953H24.8942C22.2489 0.501953 20.1045 2.55315 20.1045 5.08342C20.1045 7.61368 22.2489 9.66488 24.8942 9.66488H27.1727C28.1391 9.66488 28.9221 10.4138 28.9221 11.3382C28.9221 12.2626 28.1391 13.0116 27.1727 13.0116H20.1045V15.9174H27.1727C29.818 15.9174 31.9624 13.8662 31.9624 11.336C31.9624 8.80572 29.818 6.75452 27.1727 6.75452Z" fill="#2C2C2C"/>
<path d="M17.4774 6.75488H14.4395V9.66075H17.4774V6.75488Z" fill="#2C2C2C"/>
<path d="M8.8431 15.9155L5.59586 10.5648H3.17865V15.9155H0.00195312V0.5H6.44941C7.93782 0.5 9.20521 0.999305 10.2492 1.99792C11.2932 2.99653 11.8152 4.19981 11.8152 5.61001C11.8152 6.56364 11.5307 7.44979 10.964 8.26397C10.395 9.07816 9.64256 9.69217 8.70672 10.1038L12.2761 15.9177H8.84545L8.8431 15.9155ZM3.17865 3.34064V7.89962H6.44705C7.04665 7.89962 7.55925 7.67695 7.98955 7.22713C8.41985 6.77955 8.63383 6.23976 8.63383 5.60776C8.63383 4.97576 8.41985 4.44046 7.98955 3.99964C7.55925 3.55881 7.04665 3.33839 6.44705 3.33839H3.17865V3.34064Z" fill="#2C2C2C"/>
</svg>
